<?xml version="1.0" encoding="UTF-8" standalone="no"?>
<svg
   xmlns:dc="http://purl.org/dc/elements/1.1/"
   xmlns:cc="http://creativecommons.org/ns#"
   xmlns:rdf="http://www.w3.org/1999/02/22-rdf-syntax-ns#"
   xmlns:svg="http://www.w3.org/2000/svg"
   xmlns="http://www.w3.org/2000/svg"
   xmlns:sodipodi="http://sodipodi.sourceforge.net/DTD/sodipodi-0.dtd"
   xmlns:inkscape="http://www.inkscape.org/namespaces/inkscape"
   version="1.1"
   id="svg2892"
   inkscape:version="0.91 r13725"
   sodipodi:docname="clillac-arp.svg"
   width="650.72699"
   height="197.00063">
  <sodipodi:namedview
     pagecolor="#ffffff"
     bordercolor="#666666"
     borderopacity="1"
     objecttolerance="10"
     gridtolerance="10"
     guidetolerance="10"
     inkscape:pageopacity="0"
     inkscape:pageshadow="2"
     inkscape:window-width="1207"
     inkscape:window-height="747"
     id="namedview39"
     showgrid="false"
     inkscape:zoom="1.66"
     inkscape:cx="328.12747"
     inkscape:cy="138.99922"
     inkscape:window-x="0"
     inkscape:window-y="0"
     inkscape:window-maximized="0"
     inkscape:current-layer="svg2892"
     fit-margin-top="0"
     fit-margin-left="0"
     fit-margin-right="0"
     fit-margin-bottom="0" />
  <defs
     id="defs2894" />
  <metadata
     id="metadata2897">
    <rdf:RDF>
      <cc:Work
         rdf:about="">
        <dc:format>image/svg+xml</dc:format>
        <dc:type
           rdf:resource="http://purl.org/dc/dcmitype/StillImage" />
        <dc:title></dc:title>
      </cc:Work>
    </rdf:RDF>
  </metadata>
  <g
     style="display:inline"
     id="layer44"
     transform="translate(-6.0518362,-322.79012)" />
  <g
     style="display:inline"
     id="layer1"
     transform="translate(-6.0518362,-322.79012)" />
  <g
     style="display:inline"
     id="layer47"
     transform="translate(-6.0518362,-322.79012)" />
  <g
     style="display:inline"
     id="layer48"
     transform="translate(-6.0518362,-322.79012)" />
  <g
     id="layer51"
     transform="translate(-6.0518362,-322.79012)">
    <path
       id="path3900"
       d="m 45.714286,323.79075 0,195 564.642864,0 L 610,324.1479 45.714286,323.79075 Z"
       style="fill:none;fill-opacity:0.75;fill-rule:evenodd;stroke:#000000;stroke-width:2;stroke-linecap:butt;stroke-linejoin:miter;stroke-miterlimit:4;stroke-dasharray:none;stroke-opacity:0.31764706"
       inkscape:connector-curvature="0" />
  </g>
  <g
     id="layer50"
     transform="translate(-6.0518362,-322.79012)">
    <path
       id="path3875"
       d="m 56.2114,335.67818 0,173.72701 266.27672,0.14794 0,-79.29698 -93.73318,-10e-6 0.71429,-95.03682 -173.25783,0.45886 z"
       style="fill:#000000;fill-opacity:0.3183857;fill-rule:evenodd;stroke:none;stroke-width:1px;stroke-linecap:butt;stroke-linejoin:miter;stroke-opacity:1"
       inkscape:connector-curvature="0" />
  </g>
  <g
     id="layer49"
     transform="translate(-6.0518362,-322.79012)">
    <text
       id="text3868"
       y="480.21695"
       x="0.43583623"
       style="font-style:normal;font-variant:normal;font-weight:normal;font-stretch:normal;font-size:24px;font-family:'Big Caslon';-inkscape-font-specification:'Big Caslon';fill:#000000;fill-opacity:1;stroke:none;stroke-width:1px;stroke-linecap:butt;stroke-linejoin:miter;stroke-opacity:1"
       xml:space="preserve"><tspan
         style="font-style:normal;font-variant:normal;font-weight:bold;font-stretch:normal;font-size:144px;font-family:Cochin;-inkscape-font-specification:'Cochin Bold';fill:#d6003c;fill-opacity:1"
         y="480.21695"
         x="0.43583623"
         id="tspan3870">CLILLAC</tspan></text>
  </g>
  <g
     style="display:inline"
     id="layer46"
     transform="translate(-6.0518362,-322.79012)" />
  <g
     style="display:inline"
     id="layer43"
     transform="translate(-6.0518362,-322.79012)" />
  <g
     style="display:inline"
     id="layer45"
     transform="translate(-6.0518362,-322.79012)">
    <g
       transform="matrix(0.7,0,0,0.7,121.65399,-240.62684)"
       id="g3906">
      <text
         xml:space="preserve"
         style="font-style:italic;font-variant:normal;font-weight:normal;font-stretch:normal;font-size:144px;font-family:Georgia;-inkscape-font-specification:'Georgia Italic';display:inline;fill:#000000;fill-opacity:1;stroke:none;stroke-width:1px;stroke-linecap:butt;stroke-linejoin:miter;stroke-opacity:1"
         x="490.92682"
         y="889.14758"
         id="text2910"><tspan
           id="tspan2912"
           x="490.92682"
           y="889.14758"
           style="font-style:italic;font-variant:normal;font-weight:normal;font-stretch:normal;font-size:144px;font-family:Georgia;-inkscape-font-specification:'Georgia Italic'">p</tspan></text>
      <text
         xml:space="preserve"
         style="font-style:italic;font-variant:normal;font-weight:normal;font-stretch:normal;font-size:144px;line-height:125%;font-family:Georgia;-inkscape-font-specification:'Georgia Italic';text-align:start;writing-mode:lr-tb;text-anchor:start;display:inline;fill:#000000;fill-opacity:1;stroke:none;stroke-width:1px;stroke-linecap:butt;stroke-linejoin:miter;stroke-opacity:1"
         x="341.35538"
         y="887.71899"
         id="text2906"
         sodipodi:linespacing="125%"><tspan
           id="tspan2908"
           x="341.35538"
           y="887.71899"
           style="font-style:italic;font-variant:normal;font-weight:normal;font-stretch:normal;font-size:144px;line-height:125%;font-family:Georgia;-inkscape-font-specification:'Georgia Italic';text-align:start;writing-mode:lr-tb;text-anchor:start">a</tspan></text>
      <g
         id="g3846"
         transform="translate(234.35539,210.07112)">
        <path
           id="path2958"
           d="m 198.57143,674.86218 c -0.34801,0.0248 56.30932,-47.55337 59.55357,-49.73213 3.30552,-2.21991 1.7432,-1.6222 -1.78571,-5.08929 -3.48458,-3.42353 -6.89446,-3.13303 -10.26786,-3.30358 -3.36773,-0.17026 -7.0712,0.21967 -15.89286,4.01785 -8.75809,3.77081 -11.02518,3.08198 -17.49999,2.5 -6.49316,-0.58363 -7.91996,-3.05164 -9.28572,-5.17857 -1.44789,-2.25483 -1.70817,-8.89932 -2.5,-4.64285 -0.82396,4.42918 -2.15132,61.41645 -2.32143,61.42857 z"
           style="display:inline;fill:none;fill-opacity:0.75;fill-rule:evenodd;stroke:#000000;stroke-width:1px;stroke-linecap:butt;stroke-linejoin:miter;stroke-opacity:1"
           inkscape:connector-curvature="0" />
        <path
           id="path2956"
           d="m 182.85714,676.6479 c 0,0 11.34398,6.23778 18.39286,3.21429 7.04888,-3.0235 49.20607,-42.81216 53.21428,-46.78571 4.00822,-3.97356 4.43938,-4.49013 6.16944,-6.29511 3.97946,-4.15181 7.12887,-6.57548 2.66985,-11.2049 -4.70889,-4.88885 -6.72597,-4.91408 -10.01709,-5.78782 -3.52284,-0.93525 -4.3894,-0.91324 -10.0722,0.43067 -5.51383,1.30394 -8.63104,2.77 -13.21429,5.00001 -4.51072,2.19472 -7.93544,4.89691 -17.49998,2.85714 -9.59944,-2.04721 -6.90469,-10.4761 -8.57144,-12.14285 -1.66675,-1.66676 -6.78571,2.85714 -6.78571,2.85714 l -14.28572,67.85714 z"
           style="display:inline;fill:none;fill-opacity:0.75;fill-rule:evenodd;stroke:#000000;stroke-width:1px;stroke-linecap:butt;stroke-linejoin:miter;stroke-opacity:1"
           inkscape:connector-curvature="0" />
        <path
           id="path3740"
           d="m 277.67857,646.46932 0,0"
           style="display:inline;fill:none;fill-opacity:0.75;fill-rule:evenodd;stroke:#000000;stroke-width:1px;stroke-linecap:butt;stroke-linejoin:miter;stroke-opacity:1"
           inkscape:connector-curvature="0" />
        <path
           id="path3756"
           d="m 225.89286,601.82647 0,0"
           style="display:inline;fill:none;fill-opacity:0.75;fill-rule:evenodd;stroke:#000000;stroke-width:1px;stroke-linecap:butt;stroke-linejoin:miter;stroke-opacity:1"
           inkscape:connector-curvature="0" />
        <path
           id="path3738"
           d="m 198.92857,668.61218 58.21429,-47.85714"
           style="display:inline;fill:none;fill-opacity:0.75;fill-rule:evenodd;stroke:#000000;stroke-width:1px;stroke-linecap:butt;stroke-linejoin:miter;stroke-opacity:1"
           inkscape:connector-curvature="0" />
        <path
           id="path3742"
           d="m 199.28571,662.8979 54.64286,-45"
           style="display:inline;fill:none;fill-opacity:0.75;fill-rule:evenodd;stroke:#000000;stroke-width:1px;stroke-linecap:butt;stroke-linejoin:miter;stroke-opacity:1"
           inkscape:connector-curvature="0" />
        <path
           id="path3744"
           d="m 199.28571,657.00504 49.28572,-40.17857"
           style="display:inline;fill:none;fill-opacity:0.75;fill-rule:evenodd;stroke:#000000;stroke-width:1px;stroke-linecap:butt;stroke-linejoin:miter;stroke-opacity:1"
           inkscape:connector-curvature="0" />
        <path
           id="path3746"
           d="M 241.21429,617.21933 199.60714,651.1479"
           style="display:inline;fill:none;fill-opacity:0.75;fill-rule:evenodd;stroke:#000000;stroke-width:1px;stroke-linecap:butt;stroke-linejoin:miter;stroke-opacity:1"
           inkscape:connector-curvature="0" />
        <path
           id="path3748"
           d="m 228.57143,621.64789 -28.75,23.75"
           style="display:inline;fill:none;fill-opacity:0.75;fill-rule:evenodd;stroke:#000000;stroke-width:1px;stroke-linecap:butt;stroke-linejoin:miter;stroke-opacity:1"
           inkscape:connector-curvature="0" />
        <path
           id="path3750"
           d="m 218.75,623.79075 -19.10714,15.89286"
           style="display:inline;fill:none;fill-opacity:0.75;fill-rule:evenodd;stroke:#000000;stroke-width:1px;stroke-linecap:butt;stroke-linejoin:miter;stroke-opacity:1"
           inkscape:connector-curvature="0" />
        <path
           id="path3752"
           d="m 200.17857,633.25504 12.5,-10.17857"
           style="display:inline;fill:none;fill-opacity:0.75;fill-rule:evenodd;stroke:#000000;stroke-width:1px;stroke-linecap:butt;stroke-linejoin:miter;stroke-opacity:1"
           inkscape:connector-curvature="0" />
        <path
           id="path3754"
           d="m 206.60714,622.00504 -6.25,5.35714"
           style="display:inline;fill:none;fill-opacity:0.75;fill-rule:evenodd;stroke:#000000;stroke-width:1px;stroke-linecap:butt;stroke-linejoin:miter;stroke-opacity:1"
           inkscape:connector-curvature="0" />
        <path
           id="path3758"
           d="m 203.57143,618.79075 -2.85714,2.32143"
           style="display:inline;fill:none;fill-opacity:0.75;fill-rule:evenodd;stroke:#000000;stroke-width:1px;stroke-linecap:butt;stroke-linejoin:miter;stroke-opacity:1"
           inkscape:connector-curvature="0" />
        <path
           id="path3781"
           d="m 193.39252,679.7705 c -2.6723,-0.49538 -6.46086,-1.76336 -8.86301,-2.96634 l -1.00586,-0.50372 0.57572,-2.73121 c 0.31664,-1.50216 3.50075,-16.62669 7.07581,-33.61007 l 6.5001,-30.87885 1.30623,-0.96601 c 1.28012,-0.94669 2.69068,-1.69274 3.63661,-1.92339 0.77838,-0.18981 1.13525,0.34449 1.387,2.07662 0.80211,5.51885 2.08641,7.74572 5.37325,9.31681 3.92245,1.87491 10.63555,2.28626 14.90318,0.91321 0.49318,-0.15868 2.94579,-1.27469 5.45025,-2.48004 2.50447,-1.20534 5.47768,-2.55894 6.60715,-3.00799 4.63318,-1.84206 12.02423,-3.55231 13.99669,-3.23876 1.42462,0.22646 5.0348,1.13293 6.19853,1.55636 1.71122,0.62265 3.56619,1.93493 5.61299,3.97087 3.57098,3.55203 3.60175,5.17419 0.16788,8.85077 -11.8764,12.71586 -46.48985,44.41437 -57.58324,52.73392 -2.3431,1.75721 -4.12541,2.71845 -5.51544,2.97455 -1.30547,0.24053 -4.29895,0.19595 -5.82384,-0.0867 l 0,0 z m 9.55357,-7.88742 c 14.08858,-12.0581 49.24302,-41.36462 54.48448,-45.42101 1.413,-1.09353 2.70226,-2.19293 2.86501,-2.44312 0.4847,-0.74507 0.13899,-1.28549 -1.93582,-3.02611 -1.03806,-0.87086 -2.25892,-1.8961 -2.71302,-2.2783 -0.4541,-0.3822 -1.38815,-0.9605 -2.07565,-1.28512 -1.96774,-0.92911 -3.56672,-1.17658 -7.76786,-1.20218 -3.42921,-0.0209 -3.7949,0.009 -5.78271,0.47817 -2.61502,0.61677 -4.67914,1.32676 -9.39586,3.23186 -6.06962,2.45155 -7.7993,2.93618 -10.98214,3.07706 -1.60124,0.0709 -3.29091,0.006 -5.44643,-0.20963 -5.82596,-0.58237 -7.67062,-1.37008 -9.65135,-4.12132 -0.89346,-1.24103 -1.36753,-2.40767 -1.86965,-4.60102 -0.44628,-1.94943 -0.76896,-2.61934 -1.26166,-2.61934 -1.20676,0 -1.37759,1.88645 -2.12126,23.42374 -0.24528,7.10355 -0.57031,17.1343 -0.72228,22.29055 -0.15197,5.15625 -0.35369,11.34375 -0.44826,13.75 -0.22726,5.78256 -0.24085,5.28969 0.13696,4.96708 0.17188,-0.14677 2.28125,-1.95185 4.6875,-4.01131 l 0,0 z"
           style="opacity:1;fill:#000000;fill-opacity:1;stroke:#000000;stroke-width:0.579;stroke-linejoin:round;stroke-miterlimit:4;stroke-dasharray:none;stroke-opacity:1"
           inkscape:connector-curvature="0" />
      </g>
    </g>
  </g>
</svg>
